<?xml version="1.0" encoding="UTF-8" standalone="no"?>
<!-- Created with Inkscape (http://www.inkscape.org/) -->

<svg
   width="210mm"
   height="50.071323mm"
   viewBox="0 0 210 50.071323"
   version="1.1"
   id="svg5"
   xml:space="preserve"
   inkscape:version="1.2.2 (732a01da63, 2022-12-09)"
   sodipodi:docname="KL-TEAM_2.svg"
   xmlns:inkscape="http://www.inkscape.org/namespaces/inkscape"
   xmlns:sodipodi="http://sodipodi.sourceforge.net/DTD/sodipodi-0.dtd"
   xmlns="http://www.w3.org/2000/svg"
   xmlns:svg="http://www.w3.org/2000/svg"><sodipodi:namedview
     id="namedview7"
     pagecolor="#ffffff"
     bordercolor="#000000"
     borderopacity="0.25"
     inkscape:showpageshadow="2"
     inkscape:pageopacity="0.0"
     inkscape:pagecheckerboard="0"
     inkscape:deskcolor="#d1d1d1"
     inkscape:document-units="mm"
     showgrid="false"
     inkscape:zoom="2.5877449"
     inkscape:cx="399.76892"
     inkscape:cy="77.094151"
     inkscape:window-width="3360"
     inkscape:window-height="1411"
     inkscape:window-x="871"
     inkscape:window-y="-9"
     inkscape:window-maximized="1"
     inkscape:current-layer="g206" /><defs
     id="defs2"><marker
       id="DistanceX"
       orient="auto"
       refX="0"
       refY="0"
       style="overflow:visible"><path
         d="M 3,-3 -3,3 M 0,-5 V 5"
         style="stroke:#000000;stroke-width:0.5"
         id="path134" /></marker><pattern
       id="Hatch"
       patternUnits="userSpaceOnUse"
       width="8"
       height="8"
       x="0"
       y="0"><path
         d="M8 4 l-4,4"
         stroke="#000000"
         stroke-width="0.25"
         linecap="square"
         id="path137" /><path
         d="M6 2 l-4,4"
         stroke="#000000"
         stroke-width="0.25"
         linecap="square"
         id="path139" /><path
         d="M4 0 l-4,4"
         stroke="#000000"
         stroke-width="0.25"
         linecap="square"
         id="path141" /></pattern><symbol
       id="*Model_Space" /><symbol
       id="*Paper_Space" /><symbol
       id="_ArchTick"><path
         d="m -1.889764,1124.4094 3.779528,-3.7795"
         style="fill:none;stroke:#000000;stroke-linecap:round"
         id="path146" /></symbol><symbol
       id="_Origin"><path
         d="m 1.889764,1122.5197 a 1.889764,1.889764 0 0 0 -3.779528,0 1.889764,1.889764 0 0 0 3.779528,0 z"
         style="fill:none;stroke:#000000;stroke-linecap:round"
         id="path149" /><path
         style="fill:none;stroke:#000000;stroke-linecap:round"
         d="M 0,1122.52 H -3.77953"
         id="path151" /></symbol><symbol
       id="Glas" /><symbol
       id="Fenster"><path
         style="fill:none;stroke:#000000;stroke-linecap:round"
         d="M -1.88976,1122.52 H 1.88976"
         id="path155" /></symbol><symbol
       id="Tür"><path
         style="fill:none;stroke:#000000;stroke-linecap:round"
         d="m 0,1124.41 v -3.78"
         id="path158" /></symbol><symbol
       id="Türblatt" /><symbol
       id="Pfosten"><path
         style="fill:none;stroke:#000000;stroke-linecap:round"
         d="m 0,1124.41 v -3.78"
         id="path162" /><path
         style="fill:none;stroke:#000000;stroke-linecap:round"
         d="M -1.88976,1122.52 H 1.88976"
         id="path164" /></symbol><symbol
       id="Rahmen" /><symbol
       id="_None" /><symbol
       id="3D_Fenster_L"><path
         d="m 0,1122.4227 v 0 0.097 0 z"
         style="fill:none;stroke:#000000;stroke-linecap:round"
         id="path169" /></symbol><symbol
       id="3D_Fenster_R"><path
         d="m 0,1122.4227 v 0 0.097 0 z"
         style="fill:none;stroke:#000000;stroke-linecap:round"
         id="path172" /></symbol><symbol
       id="Glas_L" /><symbol
       id="Glas_R" /><symbol
       id="Fenster_L"><path
         style="fill:none;stroke:#000000;stroke-linecap:round"
         d="M 0,1122.52 H 3.77953"
         id="path177" /></symbol><symbol
       id="Fenster_R"><path
         style="fill:none;stroke:#000000;stroke-linecap:round"
         d="M -3.77953,1122.52 H 0"
         id="path180" /></symbol><symbol
       id="_Oblique"><path
         style="fill:none;stroke:#000000;stroke-linecap:round"
         d="m -1.88976,1124.41 3.77952,-3.78"
         id="path183" /></symbol></defs><g
     inkscape:label="Ebene 1"
     inkscape:groupmode="layer"
     id="layer1"
     transform="translate(0,-155.52968)"><g
       id="g261"
       transform="matrix(0.11809274,0,0,0.11809274,0.05904637,72.980534)"
       style="fill:#fe0000;fill-opacity:1;stroke:#000000;stroke-opacity:1"><g
         inkscape:label="0"
         id="g206"
         style="fill:#fe0000;fill-opacity:1;stroke:#000000;stroke-opacity:1"><path
           d="M 0,699.51968 H 1777.2634 V 1122.5197 H 0 Z"
           style="fill:#fe0000;fill-opacity:1;stroke:#fe0000;stroke-opacity:1"
           id="path188" /><path
           d="M 414.42675,796.07889 V 1027.0312 H 578.78897 V 988.00423 H 461.45209 V 796.07889 Z"
           style="fill:#ffffff;fill-opacity:1;stroke:#000000;stroke-opacity:0"
           id="path190" /><path
           d="m 177.04416,793.56322 h 47.37871 V 897.4053 l 95.75309,-104.06869 h 63.24613 l -88.59397,90.74136 93.31759,142.95323 h -61.67647 l -63.93431,-109.92585 -38.11206,38.66333 v 71.26252 h -47.37871 z"
           style="fill:#ffffff;fill-opacity:1;stroke:#000000;stroke-opacity:0"
           id="path192" /><path
           d="m 607.40596,919.7577 h 87.78864 v 45.29498 h -87.78864 z"
           style="fill:#ffffff;fill-opacity:1;stroke:#000000;stroke-opacity:0"
           id="path194" /><path
           d="m 704.77069,793.33661 h 185.8113 v 39.1143 h -69.4701 V 1027.0312 H 774.21052 V 832.45091 h -69.43983 z"
           style="fill:#ffffff;fill-opacity:1;stroke:#000000;stroke-opacity:0.00289019"
           id="path196" /><path
           d="m 921.13177,793.33661 h 173.17303 v 39.1143 H 968.40017 v 51.62706 h 117.13093 v 39.36587 H 968.40017 v 64.56039 h 130.23773 v 39.02697 H 921.13177 Z"
           style="fill:#ffffff;fill-opacity:1;stroke:#000000;stroke-opacity:0"
           id="path198" /><path
           d="m 1114.6186,1027.0312 91.3887,-233.69459 h 49.6766 l 93.7685,233.69459 h -51.461 l -20.6056,-54.04677 h -92.5884 l -19.5798,54.04677 z"
           style="fill:#ffffff;fill-opacity:1;stroke:#000000;stroke-opacity:0"
           id="path200" /><path
           d="m 1198.9296,933.98439 31.4669,-85.55509 32.1202,85.55509 z"
           style="fill:#fe0000;fill-opacity:1;stroke:#000000;stroke-opacity:0"
           id="path202" /><path
           d="M 1374.2429,1027.0312 V 793.33661 h 70.5751 l 42.2363,158.76034 42.8796,-158.76034 69.8469,0.11778 v 233.57681 h -43.5736 V 843.93084 l -46.1429,183.10036 h -46.2611 l -45.8275,-183.10036 v 183.10036 z"
           style="fill:#ffffff;fill-opacity:1;stroke:#000000;stroke-opacity:0"
           id="path204" /><path
           style="opacity:0;fill:#fe0000;fill-opacity:1;stroke:#000000;stroke-width:0.772874;stroke-opacity:1"
           d="M 1.1593105,682.44747 V 588.54332 H 396.87064 792.58197 v 93.90415 93.90415 H 396.87064 1.1593105 Z M 259.29912,725.34196 v -9.27448 h -26.2777 -26.27771 V 673.17299 630.2785 h -11.20667 -11.20666 v 52.16897 52.16897 h 37.48437 37.48437 z m 108.20232,-34.00644 v -43.28093 h 15.45747 15.45748 v -9.27448 -9.27449 h -42.12162 -42.12161 v 9.27449 9.27448 h 15.45747 15.45747 v 43.28093 43.28092 h 11.20667 11.20667 z m 123.65979,34.00644 v -9.27448 H 462.17847 433.1957 v -13.91173 -13.91173 h 25.89127 25.89127 v -9.27448 -9.27449 H 459.08697 433.1957 v -10.81059 -10.81059 l 28.01668,-0.20286 28.01667,-0.20286 0.21775,-9.08126 0.21774,-9.08127 h -39.44108 -39.44109 v 52.55541 52.55541 h 40.18943 40.18943 z m 34.00644,-2.70506 4.25081,-11.97224 20.22794,-0.004 20.22794,-0.004 2.88151,7.53552 c 1.58483,4.14453 3.63269,9.44838 4.55078,11.78632 l 1.66928,4.2508 12.21639,0.21331 c 9.65685,0.16861 12.13629,0.007 11.83409,-0.77287 -0.21026,-0.54241 -9.71888,-24.20138 -21.13027,-52.5755 l -20.74799,-51.58889 -11.61403,0.007 -11.61403,0.007 -20.28793,51.99069 c -11.15837,28.59488 -20.28794,52.2418 -20.28794,52.5487 0,0.30691 5.30385,0.55637 11.78632,0.55436 l 11.78633,-0.004 z m 108.27483,-26.85736 0.0725,-38.8369 9.7739,38.8369 9.77389,38.8369 h 10.82805 10.82806 l 9.79676,-38.45046 9.79675,-38.45047 0.0573,38.45047 0.0573,38.45046 h 10.04736 10.04736 v -52.57109 -52.57109 l -16.03104,0.2089 -16.03105,0.2089 -8.6582,32.07426 c -4.76201,17.64084 -8.93828,33.05348 -9.28057,34.2503 -0.50435,1.76342 -2.2239,-3.87893 -9.06826,-29.75564 -4.64523,-17.56242 -8.74814,-33.06201 -9.11759,-34.44352 l -0.67171,-2.51184 H 629.4693 613.27527 v 52.55541 52.55541 h 10.04736 10.04736 l 0.0725,-38.8369 z m -322.36084,0.57966 v -10.4338 h -20.09472 -20.09471 v 10.4338 10.43379 h 20.09471 20.09472 z"
           id="path1727"
           transform="matrix(2.2404708,0,0,2.2404708,-0.5,-617.9934)" /><path
           style="opacity:0;fill:#fe0000;fill-opacity:1;stroke:#000000;stroke-width:0.772874;stroke-opacity:1"
           d="M 1.1593105,682.44747 V 588.54332 H 396.87064 792.58197 v 93.90415 93.90415 H 396.87064 1.1593105 Z M 259.29912,725.34196 v -9.27448 h -26.2777 -26.27771 V 673.17299 630.2785 h -11.20667 -11.20666 v 52.16897 52.16897 h 37.48437 37.48437 z m 108.20232,-34.00644 v -43.28093 h 15.45747 15.45748 v -9.27448 -9.27449 h -42.12162 -42.12161 v 9.27449 9.27448 h 15.45747 15.45747 v 43.28093 43.28092 h 11.20667 11.20667 z m 123.65979,34.00644 v -9.27448 H 462.17847 433.1957 v -13.91173 -13.91173 h 25.89127 25.89127 v -9.27448 -9.27449 H 459.08697 433.1957 v -10.81059 -10.81059 l 28.01668,-0.20286 28.01667,-0.20286 0.21775,-9.08126 0.21774,-9.08127 h -39.44108 -39.44109 v 52.55541 52.55541 h 40.18943 40.18943 z m 34.00644,-2.70506 4.25081,-11.97224 20.22794,-0.004 20.22794,-0.004 2.88151,7.53552 c 1.58483,4.14453 3.63269,9.44838 4.55078,11.78632 l 1.66928,4.2508 12.21639,0.21331 c 9.65685,0.16861 12.13629,0.007 11.83409,-0.77287 -0.21026,-0.54241 -9.71888,-24.20138 -21.13027,-52.5755 l -20.74799,-51.58889 -11.61403,0.007 -11.61403,0.007 -20.28793,51.99069 c -11.15837,28.59488 -20.28794,52.2418 -20.28794,52.5487 0,0.30691 5.30385,0.55637 11.78632,0.55436 l 11.78633,-0.004 z m 108.27483,-26.85736 0.0725,-38.8369 9.7739,38.8369 9.77389,38.8369 h 10.82805 10.82806 l 9.79676,-38.45046 9.79675,-38.45047 0.0573,38.45047 0.0573,38.45046 h 10.04736 10.04736 v -52.57109 -52.57109 l -16.03104,0.2089 -16.03105,0.2089 -8.6582,32.07426 c -4.76201,17.64084 -8.93828,33.05348 -9.28057,34.2503 -0.50435,1.76342 -2.2239,-3.87893 -9.06826,-29.75564 -4.64523,-17.56242 -8.74814,-33.06201 -9.11759,-34.44352 l -0.67171,-2.51184 H 629.4693 613.27527 v 52.55541 52.55541 h 10.04736 10.04736 l 0.0725,-38.8369 z m -322.36084,0.57966 v -10.4338 h -20.09472 -20.09471 v 10.4338 10.43379 h 20.09471 20.09472 z"
           id="path1729"
           transform="matrix(2.2404708,0,0,2.2404708,-0.5,-617.9934)" /><path
           style="opacity:0;fill:#fe0000;fill-opacity:1;stroke:#000000;stroke-width:0.772874;stroke-opacity:1"
           d="M 1.1593105,682.44747 V 588.54332 H 396.87064 792.58197 v 93.90415 93.90415 H 396.87064 1.1593105 Z M 259.29912,725.34196 v -9.27448 h -26.2777 -26.27771 V 673.17299 630.2785 h -11.20667 -11.20666 v 52.16897 52.16897 h 37.48437 37.48437 z m 108.20232,-34.00644 v -43.28093 h 15.45747 15.45748 v -9.27448 -9.27449 h -42.12162 -42.12161 v 9.27449 9.27448 h 15.45747 15.45747 v 43.28093 43.28092 h 11.20667 11.20667 z m 123.65979,34.00644 v -9.27448 H 462.17847 433.1957 v -13.91173 -13.91173 h 25.89127 25.89127 v -9.27448 -9.27449 H 459.08697 433.1957 v -10.81059 -10.81059 l 28.01668,-0.20286 28.01667,-0.20286 0.21775,-9.08126 0.21774,-9.08127 h -39.44108 -39.44109 v 52.55541 52.55541 h 40.18943 40.18943 z m 34.00644,-2.70506 4.25081,-11.97224 20.22794,-0.004 20.22794,-0.004 2.88151,7.53552 c 1.58483,4.14453 3.63269,9.44838 4.55078,11.78632 l 1.66928,4.2508 12.21639,0.21331 c 9.65685,0.16861 12.13629,0.007 11.83409,-0.77287 -0.21026,-0.54241 -9.71888,-24.20138 -21.13027,-52.5755 l -20.74799,-51.58889 -11.61403,0.007 -11.61403,0.007 -20.28793,51.99069 c -11.15837,28.59488 -20.28794,52.2418 -20.28794,52.5487 0,0.30691 5.30385,0.55637 11.78632,0.55436 l 11.78633,-0.004 z m 108.27483,-26.85736 0.0725,-38.8369 9.7739,38.8369 9.77389,38.8369 h 10.82805 10.82806 l 9.79676,-38.45046 9.79675,-38.45047 0.0573,38.45047 0.0573,38.45046 h 10.04736 10.04736 v -52.57109 -52.57109 l -16.03104,0.2089 -16.03105,0.2089 -8.6582,32.07426 c -4.76201,17.64084 -8.93828,33.05348 -9.28057,34.2503 -0.50435,1.76342 -2.2239,-3.87893 -9.06826,-29.75564 -4.64523,-17.56242 -8.74814,-33.06201 -9.11759,-34.44352 l -0.67171,-2.51184 H 629.4693 613.27527 v 52.55541 52.55541 h 10.04736 10.04736 l 0.0725,-38.8369 z m -322.36084,0.57966 v -10.4338 h -20.09472 -20.09471 v 10.4338 10.43379 h 20.09471 20.09472 z"
           id="path1731"
           transform="matrix(2.2404708,0,0,2.2404708,-0.5,-617.9934)" /><path
           style="opacity:0;fill:#fe0000;fill-opacity:1;stroke:#000000;stroke-width:0.772874;stroke-opacity:1"
           d="M 1.1593105,682.44747 V 588.54332 H 396.87064 792.58197 v 93.90415 93.90415 H 396.87064 1.1593105 Z M 259.29912,725.34196 v -9.27448 h -26.2777 -26.27771 V 673.17299 630.2785 h -11.20667 -11.20666 v 52.16897 52.16897 h 37.48437 37.48437 z m 108.20232,-34.00644 v -43.28093 h 15.45747 15.45748 v -9.27448 -9.27449 h -42.12162 -42.12161 v 9.27449 9.27448 h 15.45747 15.45747 v 43.28093 43.28092 h 11.20667 11.20667 z m 123.65979,34.00644 v -9.27448 H 462.17847 433.1957 v -13.91173 -13.91173 h 25.89127 25.89127 v -9.27448 -9.27449 H 459.08697 433.1957 v -10.81059 -10.81059 l 28.01668,-0.20286 28.01667,-0.20286 0.21775,-9.08126 0.21774,-9.08127 h -39.44108 -39.44109 v 52.55541 52.55541 h 40.18943 40.18943 z m 34.00644,-2.70506 4.25081,-11.97224 20.22794,-0.004 20.22794,-0.004 2.88151,7.53552 c 1.58483,4.14453 3.63269,9.44838 4.55078,11.78632 l 1.66928,4.2508 12.21639,0.21331 c 9.65685,0.16861 12.13629,0.007 11.83409,-0.77287 -0.21026,-0.54241 -9.71888,-24.20138 -21.13027,-52.5755 l -20.74799,-51.58889 -11.61403,0.007 -11.61403,0.007 -20.28793,51.99069 c -11.15837,28.59488 -20.28794,52.2418 -20.28794,52.5487 0,0.30691 5.30385,0.55637 11.78632,0.55436 l 11.78633,-0.004 z m 108.27483,-26.85736 0.0725,-38.8369 9.7739,38.8369 9.77389,38.8369 h 10.82805 10.82806 l 9.79676,-38.45046 9.79675,-38.45047 0.0573,38.45047 0.0573,38.45046 h 10.04736 10.04736 v -52.57109 -52.57109 l -16.03104,0.2089 -16.03105,0.2089 -8.6582,32.07426 c -4.76201,17.64084 -8.93828,33.05348 -9.28057,34.2503 -0.50435,1.76342 -2.2239,-3.87893 -9.06826,-29.75564 -4.64523,-17.56242 -8.74814,-33.06201 -9.11759,-34.44352 l -0.67171,-2.51184 H 629.4693 613.27527 v 52.55541 52.55541 h 10.04736 10.04736 l 0.0725,-38.8369 z m -322.36084,0.57966 v -10.4338 h -20.09472 -20.09471 v 10.4338 10.43379 h 20.09471 20.09472 z"
           id="path1940"
           transform="matrix(2.2404708,0,0,2.2404708,-0.5,-617.9934)" /><path
           style="opacity:0;fill:#fe0000;fill-opacity:1;stroke:#000000;stroke-width:0.772874;stroke-opacity:1"
           d="M 1.1593105,682.44747 V 588.54332 H 396.87064 792.58197 v 93.90415 93.90415 H 396.87064 1.1593105 Z M 259.29912,725.34196 v -9.27448 h -26.2777 -26.27771 V 673.17299 630.2785 h -11.20667 -11.20666 v 52.16897 52.16897 h 37.48437 37.48437 z m 108.20232,-34.00644 v -43.28093 h 15.45747 15.45748 v -9.27448 -9.27449 h -42.12162 -42.12161 v 9.27449 9.27448 h 15.45747 15.45747 v 43.28093 43.28092 h 11.20667 11.20667 z m 123.65979,34.00644 v -9.27448 H 462.17847 433.1957 v -13.91173 -13.91173 h 25.89127 25.89127 v -9.27448 -9.27449 H 459.08697 433.1957 v -10.81059 -10.81059 l 28.01668,-0.20286 28.01667,-0.20286 0.21775,-9.08126 0.21774,-9.08127 h -39.44108 -39.44109 v 52.55541 52.55541 h 40.18943 40.18943 z m 34.00644,-2.70506 4.25081,-11.97224 20.22794,-0.004 20.22794,-0.004 2.88151,7.53552 c 1.58483,4.14453 3.63269,9.44838 4.55078,11.78632 l 1.66928,4.2508 12.21639,0.21331 c 9.65685,0.16861 12.13629,0.007 11.83409,-0.77287 -0.21026,-0.54241 -9.71888,-24.20138 -21.13027,-52.5755 l -20.74799,-51.58889 -11.61403,0.007 -11.61403,0.007 -20.28793,51.99069 c -11.15837,28.59488 -20.28794,52.2418 -20.28794,52.5487 0,0.30691 5.30385,0.55637 11.78632,0.55436 l 11.78633,-0.004 z m 108.27483,-26.85736 0.0725,-38.8369 9.7739,38.8369 9.77389,38.8369 h 10.82805 10.82806 l 9.79676,-38.45046 9.79675,-38.45047 0.0573,38.45047 0.0573,38.45046 h 10.04736 10.04736 v -52.57109 -52.57109 l -16.03104,0.2089 -16.03105,0.2089 -8.6582,32.07426 c -4.76201,17.64084 -8.93828,33.05348 -9.28057,34.2503 -0.50435,1.76342 -2.2239,-3.87893 -9.06826,-29.75564 -4.64523,-17.56242 -8.74814,-33.06201 -9.11759,-34.44352 l -0.67171,-2.51184 H 629.4693 613.27527 v 52.55541 52.55541 h 10.04736 10.04736 l 0.0725,-38.8369 z m -322.36084,0.57966 v -10.4338 h -20.09472 -20.09471 v 10.4338 10.43379 h 20.09471 20.09472 z"
           id="path1942"
           transform="matrix(2.2404708,0,0,2.2404708,-0.5,-617.9934)" /><path
           style="opacity:0;fill:#fe0000;fill-opacity:1;stroke:#000000;stroke-width:0.772874;stroke-opacity:1"
           d="M 1.1593105,682.44747 V 588.54332 H 396.87064 792.58197 v 93.90415 93.90415 H 396.87064 1.1593105 Z M 259.29912,725.34196 v -9.27448 h -26.2777 -26.27771 V 673.17299 630.2785 h -11.20667 -11.20666 v 52.16897 52.16897 h 37.48437 37.48437 z m 108.20232,-34.00644 v -43.28093 h 15.45747 15.45748 v -9.27448 -9.27449 h -42.12162 -42.12161 v 9.27449 9.27448 h 15.45747 15.45747 v 43.28093 43.28092 h 11.20667 11.20667 z m 123.65979,34.00644 v -9.27448 H 462.17847 433.1957 v -13.91173 -13.91173 h 25.89127 25.89127 v -9.27448 -9.27449 H 459.08697 433.1957 v -10.81059 -10.81059 l 28.01668,-0.20286 28.01667,-0.20286 0.21775,-9.08126 0.21774,-9.08127 h -39.44108 -39.44109 v 52.55541 52.55541 h 40.18943 40.18943 z m 34.00644,-2.70506 4.25081,-11.97224 20.22794,-0.004 20.22794,-0.004 2.88151,7.53552 c 1.58483,4.14453 3.63269,9.44838 4.55078,11.78632 l 1.66928,4.2508 12.21639,0.21331 c 9.65685,0.16861 12.13629,0.007 11.83409,-0.77287 -0.21026,-0.54241 -9.71888,-24.20138 -21.13027,-52.5755 l -20.74799,-51.58889 -11.61403,0.007 -11.61403,0.007 -20.28793,51.99069 c -11.15837,28.59488 -20.28794,52.2418 -20.28794,52.5487 0,0.30691 5.30385,0.55637 11.78632,0.55436 l 11.78633,-0.004 z m 108.27483,-26.85736 0.0725,-38.8369 9.7739,38.8369 9.77389,38.8369 h 10.82805 10.82806 l 9.79676,-38.45046 9.79675,-38.45047 0.0573,38.45047 0.0573,38.45046 h 10.04736 10.04736 v -52.57109 -52.57109 l -16.03104,0.2089 -16.03105,0.2089 -8.6582,32.07426 c -4.76201,17.64084 -8.93828,33.05348 -9.28057,34.2503 -0.50435,1.76342 -2.2239,-3.87893 -9.06826,-29.75564 -4.64523,-17.56242 -8.74814,-33.06201 -9.11759,-34.44352 l -0.67171,-2.51184 H 629.4693 613.27527 v 52.55541 52.55541 h 10.04736 10.04736 l 0.0725,-38.8369 z m -322.36084,0.57966 v -10.4338 h -20.09472 -20.09471 v 10.4338 10.43379 h 20.09471 20.09472 z"
           id="path1944"
           transform="matrix(2.2404708,0,0,2.2404708,-0.5,-617.9934)" /><path
           style="opacity:0;fill:#fe0000;fill-opacity:1;stroke:#000000;stroke-width:0.772874;stroke-opacity:1"
           d="M 1.1593105,682.44747 V 588.54332 H 396.87064 792.58197 v 93.90415 93.90415 H 396.87064 1.1593105 Z M 259.29912,725.34196 v -9.27448 h -26.2777 -26.27771 V 673.17299 630.2785 h -11.20667 -11.20666 v 52.16897 52.16897 h 37.48437 37.48437 z m 108.20232,-34.00644 v -43.28093 h 15.45747 15.45748 v -9.27448 -9.27449 h -42.12162 -42.12161 v 9.27449 9.27448 h 15.45747 15.45747 v 43.28093 43.28092 h 11.20667 11.20667 z m 123.65979,34.00644 v -9.27448 H 462.17847 433.1957 v -13.91173 -13.91173 h 25.89127 25.89127 v -9.27448 -9.27449 H 459.08697 433.1957 v -10.81059 -10.81059 l 28.01668,-0.20286 28.01667,-0.20286 0.21775,-9.08126 0.21774,-9.08127 h -39.44108 -39.44109 v 52.55541 52.55541 h 40.18943 40.18943 z m 34.00644,-2.70506 4.25081,-11.97224 20.22794,-0.004 20.22794,-0.004 2.88151,7.53552 c 1.58483,4.14453 3.63269,9.44838 4.55078,11.78632 l 1.66928,4.2508 12.21639,0.21331 c 9.65685,0.16861 12.13629,0.007 11.83409,-0.77287 -0.21026,-0.54241 -9.71888,-24.20138 -21.13027,-52.5755 l -20.74799,-51.58889 -11.61403,0.007 -11.61403,0.007 -20.28793,51.99069 c -11.15837,28.59488 -20.28794,52.2418 -20.28794,52.5487 0,0.30691 5.30385,0.55637 11.78632,0.55436 l 11.78633,-0.004 z m 108.27483,-26.85736 0.0725,-38.8369 9.7739,38.8369 9.77389,38.8369 h 10.82805 10.82806 l 9.79676,-38.45046 9.79675,-38.45047 0.0573,38.45047 0.0573,38.45046 h 10.04736 10.04736 v -52.57109 -52.57109 l -16.03104,0.2089 -16.03105,0.2089 -8.6582,32.07426 c -4.76201,17.64084 -8.93828,33.05348 -9.28057,34.2503 -0.50435,1.76342 -2.2239,-3.87893 -9.06826,-29.75564 -4.64523,-17.56242 -8.74814,-33.06201 -9.11759,-34.44352 l -0.67171,-2.51184 H 629.4693 613.27527 v 52.55541 52.55541 h 10.04736 10.04736 l 0.0725,-38.8369 z m -322.36084,0.57966 v -10.4338 h -20.09472 -20.09471 v 10.4338 10.43379 h 20.09471 20.09472 z"
           id="path1946"
           transform="matrix(2.2404708,0,0,2.2404708,-0.5,-617.9934)" /></g><g
         inkscape:label="Defpoints"
         id="g208"
         style="fill:#fe0000;fill-opacity:1;stroke:#000000;stroke-opacity:1" /></g></g></svg>
