<?xml version="1.0" encoding="UTF-8" standalone="no"?>
<!-- Created with Inkscape (http://www.inkscape.org/) -->

<svg
   width="210.11705mm"
   height="55.646244mm"
   viewBox="0 0 210.11705 55.646244"
   version="1.1"
   id="svg5"
   xml:space="preserve"
   inkscape:export-filename="KL-TEAM.svg"
   inkscape:export-xdpi="2400"
   inkscape:export-ydpi="2400"
   xmlns:inkscape="http://www.inkscape.org/namespaces/inkscape"
   xmlns:sodipodi="http://sodipodi.sourceforge.net/DTD/sodipodi-0.dtd"
   xmlns="http://www.w3.org/2000/svg"
   xmlns:svg="http://www.w3.org/2000/svg"><sodipodi:namedview
     id="namedview7"
     pagecolor="#ffffff"
     bordercolor="#000000"
     borderopacity="0.25"
     inkscape:showpageshadow="2"
     inkscape:pageopacity="0.0"
     inkscape:pagecheckerboard="0"
     inkscape:deskcolor="#d1d1d1"
     inkscape:document-units="mm"
     showgrid="false"
     inkscape:zoom="2"
     inkscape:cx="447.25"
     inkscape:cy="773.75"
     inkscape:window-width="3360"
     inkscape:window-height="1411"
     inkscape:window-x="871"
     inkscape:window-y="-9"
     inkscape:window-maximized="1"
     inkscape:current-layer="layer1" /><defs
     id="defs2" /><g
     inkscape:label="Ebene 1"
     inkscape:groupmode="layer"
     id="layer1"
     transform="translate(0.05852614,-169.97193)"><g
       id="g427"
       transform="matrix(0.10702789,0,0,0.10702789,22.718039,105.41873)"><g
         inkscape:label="0"
         id="g372"
         class="UnoptimicedTransforms"><path
           d="M -212.19651,603.75682 H 1749.7763 V 1122.4534 H -212.19651 Z"
           style="fill:#fe0000;fill-opacity:1;stroke:#ff0101;stroke-width:1.22623;stroke-opacity:1"
           id="path354" /><path
           d="M 187.43856,722.16091 V 1005.3622 H 388.98494 V 957.5061 H 245.10258 V 722.16091 Z"
           style="fill:#ffffff;stroke:#000000;stroke-width:1.22623;stroke-opacity:0"
           id="path356" /><path
           d="m -103.64781,719.07611 h 58.097338 V 846.4107 L 71.865125,718.79824 H 149.41961 L 40.782774,830.06828 155.21188,1005.3622 H 79.582158 L 1.1837985,870.56755 -45.550472,917.97781 v 87.38439 h -58.097338 z"
           style="fill:#ffffff;stroke:#000000;stroke-width:1.22623;stroke-opacity:0"
           id="path358" /><path
           d="m 424.07604,873.81995 h 107.64933 v 55.5422 H 424.07604 Z"
           style="fill:#ffffff;stroke:#000000;stroke-width:1.22623;stroke-opacity:0"
           id="path360" /><path
           d="m 543.46788,718.79824 h 227.84795 v 47.96325 H 686.12929 V 1005.3622 H 628.6173 V 766.76149 h -85.14942 z"
           style="fill:#ffffff;stroke:#000000;stroke-width:1.22623;stroke-opacity:0"
           id="path362" /><path
           d="m 808.77698,718.79824 h 212.35052 v 47.96325 H 866.73905 v 63.30679 h 143.62975 v 48.27174 H 866.73905 v 79.16608 h 159.70175 v 47.8561 H 808.77698 Z"
           style="fill:#ffffff;stroke:#000000;stroke-width:1.22623;stroke-opacity:0"
           id="path364" /><path
           d="m 1046.0369,1005.3622 112.0638,-286.56396 h 60.9151 l 114.9821,286.56396 h -63.1031 l -25.2674,-66.27387 h -113.5349 l -24.0094,66.27387 z"
           style="fill:#ffffff;stroke:#000000;stroke-width:1.22623;stroke-opacity:0"
           id="path366" /><path
           d="m 1149.4219,891.26519 38.5858,-104.91048 39.3868,104.91048 z"
           style="fill:#fe0000;fill-opacity:1;stroke:#000000;stroke-width:1.22623;stroke-opacity:0"
           id="path368" /><path
           d="M 1364.3967,1005.3622 V 718.79824 h 86.5416 l 51.7915,194.67716 52.5805,-194.67716 85.6485,0.14442 v 286.41954 h -53.4314 V 780.83855 l -56.582,224.52365 h -56.7267 l -56.1953,-224.52365 v 224.52365 z"
           style="fill:#ffffff;stroke:#000000;stroke-width:1.22623;stroke-opacity:0"
           id="path370" /><path
           style="fill:#fe0000;fill-opacity:1;stroke-width:3.03136"
           d="M -210.2669,863.2446 V 607.09408 H 768.86466 1747.9962 V 863.2446 1119.3951 H 768.86466 -210.2669 Z m 166.725198,99.20139 v -44.78854 l 22.1096,-21.96204 22.10960994,-21.96204 38.76597106,66.75058 38.76597,66.75055 h 39.159531 c 21.53775,0 39.15954,-0.8772 39.15954,-1.9495 0,-1.0723 -25.31289,-40.7175 -56.25087,-88.10053 L 44.02679,831.03344 92.691692,780.06852 c 26.765688,-28.03069 50.714458,-52.66587 53.219498,-54.74488 2.50503,-2.07898 4.5546,-4.97705 4.5546,-6.44018 0,-1.46309 -18.07453,-2.5418 -40.16561,-2.39708 l -40.165625,0.2631 -56.08029,61.29233 -56.08029,61.29233 -0.819349,-61.55542 -0.819349,-61.55543 h -30.25216 -30.252167 v 145.50562 145.50559 h 30.313678 30.31367 z M 388.4281,981.46791 V 955.7013 H 317.94882 247.46953 V 837.47798 719.25466 H 217.15586 186.84219 V 863.2446 1007.2345 H 287.63515 388.4281 Z m 298.58966,-93.97238 v -119.739 h 42.43913 42.43914 V 741.98991 716.22329 H 656.70408 541.51214 v 25.76662 25.76662 h 42.43914 42.43913 v 119.739 119.73897 h 30.31367 30.31368 z m 342.54444,93.97238 V 955.7013 h -80.33114 -80.33128 v -37.8921 -37.89209 h 71.23711 71.23711 V 854.15049 828.38387 H 940.13689 868.89978 V 798.0702 767.75653 h 77.29981 77.29991 V 741.98991 716.22329 H 915.88596 808.27244 v 145.50562 145.50559 h 110.64487 110.64489 z m 92.0471,-7.57842 11.7096,-33.34504 h 55.2722 55.2723 l 12.7808,33.34504 12.7809,33.34501 h 33.1526 c 18.234,0 33.1526,-0.6755 33.1526,-1.5011 0,-1.7763 -106.7759,-268.98166 -112.3965,-281.27103 l -3.8572,-8.43342 -31.5782,0.85499 -31.5783,0.85503 -55.7707,142.47426 c -30.6739,78.36083 -55.7841,143.49727 -55.8005,144.74777 -0.016,1.2504 14.6359,2.2735 32.5605,2.2735 h 32.5904 z m 299.2794,-68.9636 0.2801,-102.30864 25.8561,102.30864 25.8559,102.30861 h 29.8865 29.8863 l 2.1124,-8.33617 c 1.1618,-4.58504 12.6587,-49.94183 25.5486,-100.79301 l 23.4364,-92.4567 0.2756,100.79295 0.2758,100.79293 h 28.798 28.798 V 861.72891 716.22329 h -43.8374 -43.8374 l -4.1621,14.399 c -2.2892,7.91944 -13.5737,49.47903 -25.0768,92.35463 -11.503,42.87559 -21.7921,76.97847 -22.8648,75.78417 -1.0726,-1.1943 -12.6899,-42.75204 -25.8161,-92.35047 l -23.8659,-90.17902 -44.7127,-0.004 -44.7126,-0.004 v 145.50562 145.50568 h 28.798 28.798 l 0.2801,-102.3087 z m -888.47066,-3.78921 v -30.31367 h -54.56461 -54.56461 v 30.31367 30.31367 h 54.56461 54.56461 z"
           id="path7180" /></g><g
         inkscape:label="Defpoints"
         id="g374" /></g></g></svg>
